{
  "accessors": [
    {
      "bufferView": 2,
      "componentType": 5126,
      "count": 972,
      "max": [
        11.414725303649902,
        11.326086044311523,
        0.69320279359817505
      ],
      "min": [
        -11.343424797058105,
        -11.432064056396484,
        -3.909534215927124
      ],
      "type": "VEC3"
    },
    {
      "bufferView": 2,
      "byteOffset": 11664,
      "componentType": 5126,
      "count": 972,
      "max": [
        0.99979096651077271,
        0.99979096651077271,
        1
      ],
      "min": [
        -0.99979090690612793,
        -0.99979096651077271,
        -1
      ],
      "type": "VEC3"
    },
    {
      "bufferView": 3,
      "componentType": 5126,
      "count": 972,
      "max": [
        1,
        0.70973694324493408,
        1,
        1
      ],
      "min": [
        -1,
        -0.75274014472961426,
        -1,
        1
      ],
      "type": "VEC4"
    },
    {
      "bufferView": 1,
      "componentType": 5126,
      "count": 972,
      "max": [
        0.99167925119400024,
        0.9916115403175354
      ],
      "min": [
        0.0083207478746771812,
        0.008388519287109375
      ],
      "type": "VEC2"
    },
    {
      "bufferView": 0,
      "componentType": 5125,
      "count": 3768,
      "max": [
        971
      ],
      "min": [
        0
      ],
      "type": "SCALAR"
    },
    {
      "bufferView": 2,
      "byteOffset": 23328,
      "componentType": 5126,
      "count": 1040,
      "max": [
        13.596464157104492,
        5.8144793510437012,
        13.245099067687988
      ],
      "min": [
        -13.065103530883789,
        -1.3891390562057495,
        -13.416468620300293
      ],
      "type": "VEC3"
    },
    {
      "bufferView": 2,
      "byteOffset": 35808,
      "componentType": 5126,
      "count": 1040,
      "max": [
        0.99995994567871094,
        1,
        0.99998998641967773
      ],
      "min": [
        -0.99995994567871094,
        -1,
        -0.99998998641967773
      ],
      "type": "VEC3"
    },
    {
      "bufferView": 3,
      "byteOffset": 15552,
      "componentType": 5126,
      "count": 1040,
      "max": [
        1,
        0.26861745119094849,
        0.99995994567871094,
        1
      ],
      "min": [
        -0.99999004602432251,
        -0.2686174213886261,
        -0.99996000528335571,
        1
      ],
      "type": "VEC4"
    },
    {
      "bufferView": 1,
      "byteOffset": 7776,
      "componentType": 5126,
      "count": 1040,
      "max": [
        0.99104404449462891,
        0.99121332168579102
      ],
      "min": [
        0.0089559778571128845,
        0.0087866783142089844
      ],
      "type": "VEC2"
    },
    {
      "bufferView": 0,
      "byteOffset": 15072,
      "componentType": 5125,
      "count": 3000,
      "max": [
        1039
      ],
      "min": [
        0
      ],
      "type": "SCALAR"
    },
    {
      "bufferView": 2,
      "byteOffset": 48288,
      "componentType": 5126,
      "count": 713,
      "max": [
        11.393089294433594,
        5.7708849906921387,
        11.393089294433594
      ],
      "min": [
        -11.393089294433594,
        -2.1583938598632812,
        -11.393089294433594
      ],
      "type": "VEC3"
    },
    {
      "bufferView": 2,
      "byteOffset": 56844,
      "componentType": 5126,
      "count": 713,
      "max": [
        0.99957507848739624,
        1,
        0.99957507848739624
      ],
      "min": [
        -0.99957507848739624,
        -1,
        -0.99957507848739624
      ],
      "type": "VEC3"
    },
    {
      "bufferView": 3,
      "byteOffset": 32192,
      "componentType": 5126,
      "count": 713,
      "max": [
        1,
        0.91843110322952271,
        0.99999946355819702,
        1
      ],
      "min": [
        -0.99999934434890747,
        -0.91843110322952271,
        -0.99999946355819702,
        1
      ],
      "type": "VEC4"
    },
    {
      "bufferView": 1,
      "byteOffset": 16096,
      "componentType": 5126,
      "count": 713,
      "max": [
        0.99116051197052002,
        0.99130141735076904
      ],
      "min": [
        0.0088394619524478912,
        0.008698582649230957
      ],
      "type": "VEC2"
    },
    {
      "bufferView": 0,
      "byteOffset": 27072,
      "componentType": 5125,
      "count": 2568,
      "max": [
        712
      ],
      "min": [
        0
      ],
      "type": "SCALAR"
    },
    {
      "bufferView": 2,
      "byteOffset": 65400,
      "componentType": 5126,
      "count": 979,
      "max": [
        11.383197784423828,
        11.329994201660156,
        0.69320279359817505
      ],
      "min": [
        -11.402980804443359,
        -11.456184387207031,
        -3.909534215927124
      ],
      "type": "VEC3"
    },
    {
      "bufferView": 2,
      "byteOffset": 77148,
      "componentType": 5126,
      "count": 979,
      "max": [
        0.99957507848739624,
        0.99957507848739624,
        1
      ],
      "min": [
        -0.99957507848739624,
        -0.99957507848739624,
        -1
      ],
      "type": "VEC3"
    },
    {
      "bufferView": 3,
      "byteOffset": 43600,
      "componentType": 5126,
      "count": 979,
      "max": [
        1,
        0.78445661067962646,
        1,
        1
      ],
      "min": [
        -1,
        -0.78445637226104736,
        -1,
        1
      ],
      "type": "VEC4"
    },
    {
      "bufferView": 1,
      "byteOffset": 21800,
      "componentType": 5126,
      "count": 979,
      "max": [
        0.99143600463867188,
        0.99154961109161377
      ],
      "min": [
        0.0085639674216508865,
        0.0084503889083862305
      ],
      "type": "VEC2"
    },
    {
      "bufferView": 0,
      "byteOffset": 37344,
      "componentType": 5125,
      "count": 3768,
      "max": [
        978
      ],
      "min": [
        0
      ],
      "type": "SCALAR"
    },
    {
      "bufferView": 2,
      "byteOffset": 88896,
      "componentType": 5126,
      "count": 1054,
      "max": [
        11.405709266662598,
        11.419363975524902,
        3.2281179428100586
      ],
      "min": [
        -11.38046932220459,
        -11.366814613342285,
        -7.3182053565979004
      ],
      "type": "VEC3"
    },
    {
      "bufferView": 2,
      "byteOffset": 101544,
      "componentType": 5126,
      "count": 1054,
      "max": [
        1,
        1,
        1
      ],
      "min": [
        -1,
        -1,
        -1
      ],
      "type": "VEC3"
    },
    {
      "bufferView": 3,
      "byteOffset": 59264,
      "componentType": 5126,
      "count": 1054,
      "max": [
        1,
        0.76449930667877197,
        1,
        1
      ],
      "min": [
        -1,
        -0.78445649147033691,
        -1,
        1
      ],
      "type": "VEC4"
    },
    {
      "bufferView": 1,
      "byteOffset": 29632,
      "componentType": 5126,
      "count": 1054,
      "max": [
        0.99122750759124756,
        0.9915199875831604
      ],
      "min": [
        0.0087724821642041206,
        0.008480072021484375
      ],
      "type": "VEC2"
    },
    {
      "bufferView": 0,
      "byteOffset": 52416,
      "componentType": 5125,
      "count": 4152,
      "max": [
        1053
      ],
      "min": [
        0
      ],
      "type": "SCALAR"
    },
    {
      "bufferView": 2,
      "byteOffset": 114192,
      "componentType": 5126,
      "count": 402,
      "max": [
        11.862735748291016,
        11.689089775085449,
        2.9296464920043945
      ],
      "min": [
        -11.767014503479004,
        -11.94066047668457,
        -6.9285879135131836
      ],
      "type": "VEC3"
    },
    {
      "bufferView": 2,
      "byteOffset": 119016,
      "componentType": 5126,
      "count": 402,
      "max": [
        0.99187135696411133,
        0.99187135696411133,
        1
      ],
      "min": [
        -0.99187135696411133,
        -0.99187135696411133,
        -1
      ],
      "type": "VEC3"
    },
    {
      "bufferView": 3,
      "byteOffset": 76128,
      "componentType": 5126,
      "count": 402,
      "max": [
        1,
        0.98841851949691772,
        1,
        1
      ],
      "min": [
        -1,
        -0.98841714859008789,
        -1,
        1
      ],
      "type": "VEC4"
    },
    {
      "bufferView": 1,
      "byteOffset": 38064,
      "componentType": 5126,
      "count": 402,
      "max": [
        0.9909825325012207,
        0.99128937721252441
      ],
      "min": [
        0.0090174823999404907,
        0.0087106227874755859
      ],
      "type": "VEC2"
    },
    {
      "bufferView": 0,
      "byteOffset": 69024,
      "componentType": 5125,
      "count": 1488,
      "max": [
        401
      ],
      "min": [
        0
      ],
      "type": "SCALAR"
    }
  ],
  "asset": {
    "extras": {
      "author": "inna sparrow (https://sketchfab.com/innasparrow)",
      "license": "CC-BY-4.0 (http://creativecommons.org/licenses/by/4.0/)",
      "source": "https://sketchfab.com/models/1c1f37f4e1674332b7edb7d7f8ec6879",
      "title": "3D icons Compass"
    },
    "generator": "Sketchfab-3.18.6",
    "version": "2.0"
  },
  "bufferViews": [
    {
      "buffer": 0,
      "byteLength": 74976,
      "byteOffset": 0,
      "name": "floatBufferViews",
      "target": 34963
    },
    {
      "buffer": 0,
      "byteLength": 41280,
      "byteOffset": 74976,
      "byteStride": 8,
      "name": "floatBufferViews",
      "target": 34962
    },
    {
      "buffer": 0,
      "byteLength": 123840,
      "byteOffset": 116256,
      "byteStride": 12,
      "name": "floatBufferViews",
      "target": 34962
    },
    {
      "buffer": 0,
      "byteLength": 82560,
      "byteOffset": 240096,
      "byteStride": 16,
      "name": "floatBufferViews",
      "target": 34962
    }
  ],
  "buffers": [
    {
      "byteLength": 322656,
      "uri": "scene.bin"
    }
  ],
  "images": [
    {
      "uri": "textures/compas_4_baseColor.jpeg"
    },
    {
      "uri": "textures/compas_3_baseColor.jpeg"
    },
    {
      "uri": "textures/compas_2_baseColor.jpeg"
    },
    {
      "uri": "textures/compas_1_baseColor.jpeg"
    },
    {
      "uri": "textures/compas_6_baseColor.jpeg"
    },
    {
      "uri": "textures/compas_5_baseColor.jpeg"
    }
  ],
  "materials": [
    {
      "doubleSided": true,
      "emissiveFactor": [
        0,
        0,
        0
      ],
      "name": "compas_1",
      "pbrMetallicRoughness": {
        "baseColorFactor": [
          1,
          1,
          1,
          1
        ],
        "baseColorTexture": {
          "index": 3,
          "texCoord": 0
        },
        "metallicFactor": 0,
        "roughnessFactor": 0.95243171540000005
      }
    },
    {
      "doubleSided": true,
      "emissiveFactor": [
        0,
        0,
        0
      ],
      "name": "compas_2",
      "pbrMetallicRoughness": {
        "baseColorFactor": [
          1,
          1,
          1,
          1
        ],
        "baseColorTexture": {
          "index": 2,
          "texCoord": 0
        },
        "metallicFactor": 0,
        "roughnessFactor": 0.95243171540000005
      }
    },
    {
      "doubleSided": true,
      "emissiveFactor": [
        0,
        0,
        0
      ],
      "name": "compas_3",
      "pbrMetallicRoughness": {
        "baseColorFactor": [
          1,
          1,
          1,
          1
        ],
        "baseColorTexture": {
          "index": 1,
          "texCoord": 0
        },
        "metallicFactor": 0,
        "roughnessFactor": 0.95243171540000005
      }
    },
    {
      "doubleSided": true,
      "emissiveFactor": [
        0,
        0,
        0
      ],
      "name": "compas_4",
      "pbrMetallicRoughness": {
        "baseColorFactor": [
          1,
          1,
          1,
          1
        ],
        "baseColorTexture": {
          "index": 0,
          "texCoord": 0
        },
        "metallicFactor": 0,
        "roughnessFactor": 0.95243171540000005
      }
    },
    {
      "doubleSided": true,
      "emissiveFactor": [
        0,
        0,
        0
      ],
      "name": "compas_5",
      "pbrMetallicRoughness": {
        "baseColorFactor": [
          1,
          1,
          1,
          1
        ],
        "baseColorTexture": {
          "index": 5,
          "texCoord": 0
        },
        "metallicFactor": 0,
        "roughnessFactor": 0.95243171540000005
      }
    },
    {
      "doubleSided": true,
      "emissiveFactor": [
        0,
        0,
        0
      ],
      "name": "compas_6",
      "pbrMetallicRoughness": {
        "baseColorFactor": [
          1,
          1,
          1,
          1
        ],
        "baseColorTexture": {
          "index": 4,
          "texCoord": 0
        },
        "metallicFactor": 0,
        "roughnessFactor": 0.95243171540000005
      }
    }
  ],
  "meshes": [
    {
      "name": "compas_1_compas_1_0",
      "primitives": [
        {
          "attributes": {
            "NORMAL": 1,
            "POSITION": 0,
            "TANGENT": 2,
            "TEXCOORD_0": 3
          },
          "indices": 4,
          "material": 0,
          "mode": 4
        }
      ]
    },
    {
      "name": "compas_2_compas_2_0",
      "primitives": [
        {
          "attributes": {
            "NORMAL": 6,
            "POSITION": 5,
            "TANGENT": 7,
            "TEXCOORD_0": 8
          },
          "indices": 9,
          "material": 1,
          "mode": 4
        }
      ]
    },
    {
      "name": "compas_3_compas_3_0",
      "primitives": [
        {
          "attributes": {
            "NORMAL": 11,
            "POSITION": 10,
            "TANGENT": 12,
            "TEXCOORD_0": 13
          },
          "indices": 14,
          "material": 2,
          "mode": 4
        }
      ]
    },
    {
      "name": "compas_4_compas_4_0",
      "primitives": [
        {
          "attributes": {
            "NORMAL": 16,
            "POSITION": 15,
            "TANGENT": 17,
            "TEXCOORD_0": 18
          },
          "indices": 19,
          "material": 3,
          "mode": 4
        }
      ]
    },
    {
      "name": "compas_5_compas_5_0",
      "primitives": [
        {
          "attributes": {
            "NORMAL": 21,
            "POSITION": 20,
            "TANGENT": 22,
            "TEXCOORD_0": 23
          },
          "indices": 24,
          "material": 4,
          "mode": 4
        }
      ]
    },
    {
      "name": "compas_6_compas_6_0",
      "primitives": [
        {
          "attributes": {
            "NORMAL": 26,
            "POSITION": 25,
            "TANGENT": 27,
            "TEXCOORD_0": 28
          },
          "indices": 29,
          "material": 5,
          "mode": 4
        }
      ]
    }
  ],
  "nodes": [
    {
      "children": [
        1
      ],
      "name": "RootNode (gltf orientation matrix)",
      "rotation": [
        -0.70710678118654746,
        -0,
        -0,
        0.70710678118654757
      ]
    },
    {
      "children": [
        2
      ],
      "name": "RootNode (model correction matrix)"
    },
    {
      "children": [
        3
      ],
      "matrix": [
        1,
        0,
        0,
        0,
        0,
        0,
        1,
        0,
        0,
        -1,
        0,
        0,
        0,
        0,
        0,
        1
      ],
      "name": "3D icons.fbx"
    },
    {
      "children": [
        4,
        6,
        8,
        10,
        12,
        14
      ],
      "name": "RootNode"
    },
    {
      "children": [
        5
      ],
      "matrix": [
        0.99962142947092136,
        0.027513591959462267,
        0,
        0,
        -0.027513591959462267,
        0.99962142947092136,
        0,
        0,
        0,
        0,
        1,
        0,
        -74.108589172363281,
        -1.0601873397827148,
        -50.724166870117188,
        1
      ],
      "name": "compas_1"
    },
    {
      "mesh": 0,
      "name": "compas_1_compas_1_0"
    },
    {
      "children": [
        7
      ],
      "matrix": [
        1,
        0,
        0,
        0,
        0,
        2.2204460492503131e-16,
        1,
        0,
        0,
        -1,
        2.2204460492503131e-16,
        0,
        -44.157081604003906,
        -1.0589073896408081,
        -51.753368377685547,
        1
      ],
      "name": "compas_2"
    },
    {
      "mesh": 1,
      "name": "compas_2_compas_2_0"
    },
    {
      "children": [
        9
      ],
      "matrix": [
        1,
        0,
        0,
        0,
        0,
        2.2204460492503131e-16,
        1,
        0,
        0,
        -1,
        2.2204460492503131e-16,
        0,
        -12.762535095214844,
        -1.1547133922576904,
        -52.385505676269531,
        1
      ],
      "name": "compas_3"
    },
    {
      "mesh": 2,
      "name": "compas_3_compas_3_0"
    },
    {
      "children": [
        11
      ],
      "matrix": [
        0.71424360825741551,
        0.69989718392305855,
        0,
        0,
        -0.69989718392305855,
        0.71424360825741551,
        0,
        0,
        0,
        0,
        1,
        0,
        -12.427237510681152,
        -32.164623260498047,
        -50.724166870117188,
        1
      ],
      "name": "compas_4"
    },
    {
      "mesh": 3,
      "name": "compas_4_compas_4_0"
    },
    {
      "children": [
        13
      ],
      "matrix": [
        1,
        0,
        0,
        0,
        0,
        1,
        0,
        0,
        0,
        0,
        1,
        0,
        -74.529747009277344,
        -32.285423278808594,
        -47.225696563720703,
        1
      ],
      "name": "compas_5"
    },
    {
      "mesh": 4,
      "name": "compas_5_compas_5_0"
    },
    {
      "children": [
        15
      ],
      "matrix": [
        1,
        0,
        0,
        0,
        0,
        1,
        0,
        0,
        0,
        0,
        1,
        0,
        -43.902721405029297,
        -32.13336181640625,
        -49.544269561767578,
        1
      ],
      "name": "compas_6"
    },
    {
      "mesh": 5,
      "name": "compas_6_compas_6_0"
    }
  ],
  "samplers": [
    {
      "magFilter": 9729,
      "minFilter": 9987,
      "wrapS": 10497,
      "wrapT": 10497
    }
  ],
  "scene": 0,
  "scenes": [
    {
      "name": "OSG_Scene",
      "nodes": [
        0
      ]
    }
  ],
  "textures": [
    {
      "sampler": 0,
      "source": 0
    },
    {
      "sampler": 0,
      "source": 1
    },
    {
      "sampler": 0,
      "source": 2
    },
    {
      "sampler": 0,
      "source": 3
    },
    {
      "sampler": 0,
      "source": 4
    },
    {
      "sampler": 0,
      "source": 5
    }
  ]
}

